<svg width="48" height="48" viewBox="0 0 48 48" fill="none" xmlns="http://www.w3.org/2000/svg">
<path d="M30.7138 26.9582C33.3594 24.8213 36.883 23.599 40.8427 22.7402C40.252 26.6455 38.666 29.7734 36.2111 32.1516C33.6978 34.5862 30.2104 36.2957 25.7853 37.2C26.1842 32.2695 28.0468 29.1123 30.7138 26.9582ZM18.1916 22.4546C18.5079 20.0716 18.9 18.0563 19.728 16.2494C20.5552 14.4444 21.8411 12.8004 24.0294 11.2415C25.6632 12.5482 26.8346 13.6081 27.739 15.1314C28.678 16.7129 29.3709 18.8719 29.8348 22.4478C27.4648 23.3668 25.4648 25.667 24.0446 28.793C22.6445 25.7205 20.6985 23.583 18.1916 22.4546ZM33.5686 20.9878L32.9442 18.0267C33.6444 17.5453 34.5477 17.1251 35.6107 16.7401C36.5469 16.401 37.565 16.1035 38.6197 15.8159C38.5814 16.7794 38.4805 17.7906 38.3759 18.8382C38.3582 19.0162 38.3403 19.1953 38.3226 19.3754C36.6208 19.721 35.0529 20.2744 33.5686 20.9878ZM15.1418 18.0179L14.4981 20.9861C13.0177 20.2703 11.4401 19.715 9.75609 19.3539C9.74964 19.2953 9.74319 19.2368 9.73676 19.1784C9.6071 18.002 9.48217 16.8685 9.43886 15.7837C10.505 16.0725 11.5309 16.3714 12.4721 16.7139C13.5387 17.102 14.4422 17.5276 15.1418 18.0179ZM22.1885 37.2C17.775 36.2957 14.2876 34.5862 11.7743 32.1516C9.31893 29.773 7.73327 26.6449 7.15332 22.7402C11.1023 23.599 14.6259 24.8213 17.2716 26.9582C19.9388 29.1124 21.8011 32.2696 22.1885 37.2Z" stroke="black" stroke-width="2"/>
</svg>
